# xmcd CD database file
#
# Track frame offsets:
#	187
#	20887
#	44325
#	65550
#	79875
#	100817
#	133912
#	157725
#
# Disc length: 2411 seconds
#
# Revision: 0
# Processed by: cddbd v1.5.1PL2 Copyright (c) Steve Scherf et al.
# Submitted via: CD2WAV32(JP) R3.22
#
DISCID=68096908
DTITLE=エレキハチマキ - WEEKEND VIEW
DYEAR=1998
DGENRE=Dance
TTITLE0=You Gotta Moon
TTITLE1=I like the way
TTITLE2=(It's a) Gloomy day
TTITLE3=スウィート・タービンマン
TTITLE4=Whistle
TTITLE5=for the unknown paradise
TTITLE6=ブルージーンズ (Mekon Electro Reskank Mix)
TTITLE7=You Gotta Moon (Akio MilanPaak Remix)
EXTD=
EXTT0=
EXTT1=
EXTT2=
EXTT3=
EXTT4=
EXTT5=
EXTT6=
EXTT7=
PLAYORDER=
